<?xml version="1.0"?>
<svg xmlns="http://www.w3.org/2000/svg" xmlns:xlink="http://www.w3.org/1999/xlink" xmlns:svgjs="http://svgjs.com/svgjs" version="1.1" width="512" height="512" x="0" y="0" viewBox="0 0 512 512" style="enable-background:new 0 0 512 512" xml:space="preserve"><g transform="matrix(-1,-1.2246467991473532e-16,1.2246467991473532e-16,-1,511.9996871948242,512.0006429553032)">
<path xmlns="http://www.w3.org/2000/svg" style="" d="M506.638,110.481V31.936l-33.123-9.334L265.875,230.243c-5.943,5.943-5.944,15.284,0,21.229  c13.162,13.162,23.563,28.658,30.357,46.066c0.85,2.123,1.911,3.609,3.397,5.095c2.123,2.123,4.669,3.397,7.644,4.246  c5.094,0.849,9.977-0.637,13.585-4.246l181.535-181.535C505.152,118.337,506.851,114.516,506.638,110.481z" fill="#fff" data-original="#fff"/>
<path xmlns="http://www.w3.org/2000/svg" style="" d="M506.638,25.566c0-4.244-1.486-7.853-4.246-10.613c-1.486-1.486-2.972-2.547-4.883-3.185  c-1.486-0.636-2.972-0.851-4.458-1.062L376.293,0.093c-7.642-0.851-14.436,4.246-16.133,11.888l-8.492,43.307L305.36,66.78  c-5.946,1.273-10.616,5.943-11.888,11.888l-8.492,43.307l-43.306,8.491c-5.309,1.061-9.767,5.095-11.252,10.402l-15.073,47.342  c-57.104-16.347-119.305-0.425-161.763,42.032c-64.322,64.322-64.324,169.193,0,233.516c64.324,64.324,169.194,64.322,233.516,0  c5.095-5.095,20.168-22.289,22.502-28.447c4.671-5.943,12.101-21.865,12.313-22.928c22.928-49.251,17.62-120.791-24.625-171.104  L506.638,31.936V25.566z M127.888,434.463c-12.312,0-23.776-5.095-31.843-13.162s-13.162-19.531-13.162-31.843  c-0.212-24.838,20.168-45.219,45.005-45.005c12.524-0.212,23.776,5.095,31.843,13.162s13.375,19.319,13.162,31.843  C173.106,414.295,152.726,434.675,127.888,434.463z" fill="#ffa008" data-original="#ffa008"/>
<path xmlns="http://www.w3.org/2000/svg" style="" d="M506.638,25.566c0-4.244-1.486-7.853-4.246-10.613L159.731,357.615  c8.067,8.067,13.375,19.319,13.162,31.843c0.214,24.837-20.167,45.217-45.005,45.005c-12.312,0-23.776-5.095-31.843-13.162  l-42.457,42.457c64.324,64.324,169.194,64.322,233.516,0c5.095-5.095,20.168-22.289,22.502-28.447  c4.671-5.943,12.101-21.865,12.313-22.928c22.928-49.251,17.62-120.791-24.625-171.104L506.638,31.936V25.566z" fill="#e67f00" data-original="#e67f00"/>
<g xmlns="http://www.w3.org/2000/svg">
</g>
<g xmlns="http://www.w3.org/2000/svg">
</g>
<g xmlns="http://www.w3.org/2000/svg">
</g>
<g xmlns="http://www.w3.org/2000/svg">
</g>
<g xmlns="http://www.w3.org/2000/svg">
</g>
<g xmlns="http://www.w3.org/2000/svg">
</g>
<g xmlns="http://www.w3.org/2000/svg">
</g>
<g xmlns="http://www.w3.org/2000/svg">
</g>
<g xmlns="http://www.w3.org/2000/svg">
</g>
<g xmlns="http://www.w3.org/2000/svg">
</g>
<g xmlns="http://www.w3.org/2000/svg">
</g>
<g xmlns="http://www.w3.org/2000/svg">
</g>
<g xmlns="http://www.w3.org/2000/svg">
</g>
<g xmlns="http://www.w3.org/2000/svg">
</g>
<g xmlns="http://www.w3.org/2000/svg">
</g>
</g></svg>
